<svg width="24" height="24" viewBox="0 0 24 24" fill="none" xmlns="http://www.w3.org/2000/svg">
<path d="M17.2175 1.19072C15.6399 0.427875 13.87 0 12.0001 0C10.1303 0 8.36037 0.427875 6.78274 1.19072L5.73926 12L6.78274 22.8093C8.36037 23.5721 10.1303 24 12.0001 24C13.87 24 15.6399 23.5721 17.2175 22.8093L18.261 12L17.2175 1.19072Z" fill="#FFDA44"/>
<path d="M12 7.8252L13.0359 11.0136H16.3888L13.6764 12.9844L14.7124 16.173L12 14.2024L9.28753 16.173L10.3237 12.9844L7.61133 11.0136H10.964L12 7.8252Z" fill="#496E2D"/>
<path d="M6.78262 1.19043C2.76872 3.13138 0 7.2418 0 11.9993C0 16.7568 2.76872 20.8672 6.78262 22.8081V1.19043Z" fill="#496E2D"/>
<path d="M17.2173 1.19141V22.8091C21.2312 20.8682 23.9999 16.7577 23.9999 12.0003C23.9999 7.24278 21.2312 3.13236 17.2173 1.19141Z" fill="#D80027"/>
</svg>
